<svg width="710" height="292" viewBox="0 0 710 292" fill="none" xmlns="http://www.w3.org/2000/svg">
<path d="M547 255.8L537.4 244H512.8L522.4 255.8L512.8 267.6L503.2 255.8L512.8 244H500.6L491 255.8L500.6 267.6L491 279.4L500.6 291.2H525.3L515.6 279.4L525.3 267.6L534.9 279.4L525.3 291.2H537.4L547 279.4L537.4 267.6L547 255.8Z" fill="#F28383"/>
<path d="M394.9 233.4L398.9 237.2C400.4 238.6 401.2 240.5 401.2 242.6C401.2 244.6 402 246.5 403.4 247.9L403.9 248.4L408.5 233.5" fill="#F28383"/>
<path d="M381.3 246.7L386.8 246.5C388.8 246.4 390.8 247.2 392.2 248.6C393.6 250 395.5 250.7 397.5 250.7H398.2L390.8 237" fill="#F28383"/>
<path d="M381.3 265.7L385 261.7C386.4 260.2 388.3 259.3 390.3 259.3C392.3 259.3 394.1 258.4 395.5 257L396 256.5L381 252.2" fill="#F28383"/>
<path d="M394.9 278.9L394.6 273.4C394.5 271.4 395.2 269.4 396.6 267.9C397.9 266.5 398.7 264.5 398.6 262.6V261.9L385 269.6" fill="#F28383"/>
<path d="M413.9 278.5L409.8 274.9C408.3 273.6 407.4 271.7 407.3 269.6C407.2 267.6 406.3 265.8 404.9 264.4L404.4 263.9L400.4 279" fill="#F28383"/>
<path d="M426.9 264.6L421.4 265C419.4 265.2 417.4 264.5 415.9 263.1C414.4 261.8 412.5 261.1 410.5 261.2H409.8L417.8 274.6" fill="#F28383"/>
<path d="M426 245.7L422.5 249.9C421.2 251.4 419.3 252.4 417.3 252.5C415.3 252.6 413.5 253.5 412.2 255L411.8 255.5L427 259.1" fill="#F28383"/>
<path d="M411.9 233L412.4 238.5C412.6 240.5 412 242.5 410.6 244.1C409.3 245.6 408.7 247.5 408.8 249.5L408.9 250.2L422.1 241.9" fill="#F28383"/>
<path d="M278.7 223C265.1 223 254 234.1 254 247.7C254 261.3 265.1 272.4 278.7 272.4C292.3 272.4 303.4 261.3 303.4 247.7C303.4 234.1 292.3 223 278.7 223ZM260.9 247.7C260.9 242.6 263.1 237.9 266.6 234.7C268 233.4 270.4 233.8 271.4 235.5L277.6 246.2C278.2 247.2 278.2 248.4 277.6 249.4L271.4 260.1C270.4 261.9 268 262.2 266.5 260.8C263.1 257.4 260.9 252.8 260.9 247.7ZM286 259.9L279.8 249.2C279.2 248.2 279.2 247 279.8 246L286 235.3C287 233.6 289.3 233.2 290.8 234.5C294.3 237.7 296.5 242.4 296.5 247.5C296.5 252.6 294.3 257.3 290.8 260.5C289.3 262.1 287 261.7 286 259.9Z" fill="#5BA2E3"/>
<path d="M185.27 268.824H188.7L184.215 264.163C177.796 257.48 168.914 253.698 159.592 253.698H158.537H156.251H155.108C145.874 253.698 136.992 257.48 130.485 264.163L126 268.824H129.43C138.663 268.824 147.545 265.042 154.052 258.359L157.394 254.929C155.459 266.713 138.663 285.356 138.663 285.356H157.482H176.301C176.301 285.356 159.68 266.977 157.57 255.193L160.648 258.447C167.067 265.042 175.949 268.824 185.27 268.824Z" fill="#5BA2E3"/>
<path d="M154.58 246.839L157.306 244.025L160.032 246.839C165.308 252.379 172.695 255.457 180.346 255.457H183.16L179.466 251.588C174.19 246.048 166.803 242.97 159.153 242.97H158.273H156.339H155.459C147.809 242.97 140.51 246.048 135.146 251.588L131.452 255.545H134.266C141.917 255.545 149.304 252.379 154.58 246.839Z" fill="#5BA2E3"/>
<path d="M155.108 237.166L157.306 234.879L159.504 237.166C163.813 241.651 169.793 244.201 176.037 244.201H178.323L175.333 241.035C171.024 236.55 165.045 234 158.801 234H158.097H156.515H155.811C149.567 234 143.588 236.55 139.279 241.035L136.289 244.201H138.575C144.819 244.201 150.799 241.651 155.108 237.166Z" fill="#E97171"/>
<path d="M518.641 39.429L512.563 33.351C508.264 29.052 501 32.091 501 38.169V46.1H536.282V21.788L518.641 39.429Z" fill="#6C4E94"/>
<path d="M518.641 12.671L524.719 18.749C529.018 23.0481 536.282 20.0091 536.282 13.9311V6H501V30.312L518.641 12.671Z" fill="#B14B4B"/>
<path d="M429.2 22H392C394.7 22.6 396.6 25 396.6 27.7V61.3C400.3 57.6 402.3 52.7 402.3 47.5V28.7C402.3 28.2 402.7 27.7 403.3 27.7C403.8 27.7 404.3 28.1 404.3 28.7V53.7C408 50 410 45.1 410 39.9V28.7C410 28.2 410.4 27.7 411 27.7C411.5 27.7 412 28.1 412 28.7V46.1L417 41.1C417.2 40.9 417.3 40.7 417.4 40.5V40.4C417.6 40.1 417.6 39.8 417.7 39.4C418.2 32.9 423.6 27.7 430.3 27.7H435L429.2 22Z" fill="#D2D7BF"/>
<path d="M304.4 36.5L311.4 29.5C311.4 24.7 310.2 20.1 308 16.1L291.7 31.2V56.3H294.8C305.7 56.3 314.6 47.5 314.6 36.5H304.4Z" fill="#B45C5C"/>
<path d="M279.2 25.8L272.2 32.8C272.2 37.6 273.4 42.2 275.6 46.2L291.9 31.1V6H288.8C277.9 6 269 14.8 269 25.8H279.2V25.8Z" fill="#1965FA"/>
<path d="M164.6 5.70001V27.2L159.7 24.4C151 19.4 145.6 10.1 145.6 0H142V24.6C142 32.6 146.6 40 153.9 43.5L164.7 48.7V27.2L169.6 30C178.3 35 183.7 44.3 183.7 54.4H187.3V29.8C187.3 21.8 182.7 14.4 175.4 10.9L164.6 5.70001Z" fill="#FFC1C1"/>
<path d="M82.7564 94.608V162H66.3404V121.584L51.2684 162H38.0204L22.8524 121.488V162H6.43638V94.608H25.8284L44.7404 141.264L63.4604 94.608H82.7564ZM91.2974 135.12C91.2974 129.616 92.3214 124.784 94.3694 120.624C96.4814 116.464 99.3294 113.264 102.913 111.024C106.497 108.784 110.497 107.664 114.913 107.664C118.689 107.664 121.985 108.432 124.801 109.968C127.681 111.504 129.889 113.52 131.425 116.016V108.432H147.841V162H131.425V154.416C129.825 156.912 127.585 158.928 124.705 160.464C121.889 162 118.593 162.768 114.817 162.768C110.465 162.768 106.497 161.648 102.913 159.408C99.3294 157.104 96.4814 153.872 94.3694 149.712C92.3214 145.488 91.2974 140.624 91.2974 135.12ZM131.425 135.216C131.425 131.12 130.273 127.888 127.969 125.52C125.729 123.152 122.977 121.968 119.713 121.968C116.449 121.968 113.665 123.152 111.361 125.52C109.121 127.824 108.001 131.024 108.001 135.12C108.001 139.216 109.121 142.48 111.361 144.912C113.665 147.28 116.449 148.464 119.713 148.464C122.977 148.464 125.729 147.28 127.969 144.912C130.273 142.544 131.425 139.312 131.425 135.216ZM176.134 117.36C178.054 114.416 180.454 112.112 183.334 110.448C186.214 108.72 189.414 107.856 192.934 107.856V125.232H188.422C184.326 125.232 181.254 126.128 179.206 127.92C177.158 129.648 176.134 132.72 176.134 137.136V162H159.718V108.432H176.134V117.36ZM209.036 102.864C206.156 102.864 203.788 102.032 201.932 100.368C200.14 98.64 199.244 96.528 199.244 94.032C199.244 91.472 200.14 89.36 201.932 87.696C203.788 85.968 206.156 85.104 209.036 85.104C211.852 85.104 214.156 85.968 215.948 87.696C217.804 89.36 218.732 91.472 218.732 94.032C218.732 96.528 217.804 98.64 215.948 100.368C214.156 102.032 211.852 102.864 209.036 102.864ZM217.196 108.432V162H200.78V108.432H217.196ZM250.885 162.768C246.213 162.768 242.053 161.968 238.405 160.368C234.757 158.768 231.877 156.592 229.765 153.84C227.653 151.024 226.469 147.888 226.213 144.432H242.437C242.629 146.288 243.493 147.792 245.029 148.944C246.565 150.096 248.453 150.672 250.693 150.672C252.741 150.672 254.309 150.288 255.397 149.52C256.549 148.688 257.125 147.632 257.125 146.352C257.125 144.816 256.325 143.696 254.725 142.992C253.125 142.224 250.533 141.392 246.949 140.496C243.109 139.6 239.909 138.672 237.349 137.712C234.789 136.688 232.581 135.12 230.725 133.008C228.869 130.832 227.941 127.92 227.941 124.272C227.941 121.2 228.773 118.416 230.437 115.92C232.165 113.36 234.661 111.344 237.925 109.872C241.253 108.4 245.189 107.664 249.733 107.664C256.453 107.664 261.733 109.328 265.573 112.656C269.477 115.984 271.717 120.4 272.293 125.904H257.125C256.869 124.048 256.037 122.576 254.629 121.488C253.285 120.4 251.493 119.856 249.253 119.856C247.333 119.856 245.861 120.24 244.837 121.008C243.813 121.712 243.301 122.704 243.301 123.984C243.301 125.52 244.101 126.672 245.701 127.44C247.365 128.208 249.925 128.976 253.381 129.744C257.349 130.768 260.581 131.792 263.077 132.816C265.573 133.776 267.749 135.376 269.605 137.616C271.525 139.792 272.517 142.736 272.581 146.448C272.581 149.584 271.685 152.4 269.893 154.896C268.165 157.328 265.637 159.248 262.309 160.656C259.045 162.064 255.237 162.768 250.885 162.768ZM304.416 162.768C299.744 162.768 295.584 161.968 291.936 160.368C288.288 158.768 285.408 156.592 283.296 153.84C281.184 151.024 280 147.888 279.744 144.432H295.968C296.16 146.288 297.024 147.792 298.56 148.944C300.096 150.096 301.984 150.672 304.224 150.672C306.272 150.672 307.84 150.288 308.928 149.52C310.08 148.688 310.656 147.632 310.656 146.352C310.656 144.816 309.856 143.696 308.256 142.992C306.656 142.224 304.064 141.392 300.48 140.496C296.64 139.6 293.44 138.672 290.88 137.712C288.32 136.688 286.112 135.12 284.256 133.008C282.4 130.832 281.472 127.92 281.472 124.272C281.472 121.2 282.304 118.416 283.968 115.92C285.696 113.36 288.192 111.344 291.456 109.872C294.784 108.4 298.72 107.664 303.264 107.664C309.984 107.664 315.264 109.328 319.104 112.656C323.008 115.984 325.248 120.4 325.824 125.904H310.656C310.4 124.048 309.568 122.576 308.16 121.488C306.816 120.4 305.024 119.856 302.784 119.856C300.864 119.856 299.392 120.24 298.368 121.008C297.344 121.712 296.832 122.704 296.832 123.984C296.832 125.52 297.632 126.672 299.232 127.44C300.896 128.208 303.456 128.976 306.912 129.744C310.88 130.768 314.112 131.792 316.608 132.816C319.104 133.776 321.28 135.376 323.136 137.616C325.056 139.792 326.048 142.736 326.112 146.448C326.112 149.584 325.216 152.4 323.424 154.896C321.696 157.328 319.168 159.248 315.84 160.656C312.576 162.064 308.768 162.768 304.416 162.768ZM332.891 135.12C332.891 129.616 333.915 124.784 335.963 120.624C338.075 116.464 340.923 113.264 344.507 111.024C348.091 108.784 352.091 107.664 356.507 107.664C360.283 107.664 363.579 108.432 366.395 109.968C369.275 111.504 371.483 113.52 373.019 116.016V108.432H389.435V162H373.019V154.416C371.419 156.912 369.179 158.928 366.299 160.464C363.483 162 360.187 162.768 356.411 162.768C352.059 162.768 348.091 161.648 344.507 159.408C340.923 157.104 338.075 153.872 335.963 149.712C333.915 145.488 332.891 140.624 332.891 135.12ZM373.019 135.216C373.019 131.12 371.867 127.888 369.563 125.52C367.323 123.152 364.571 121.968 361.307 121.968C358.043 121.968 355.259 123.152 352.955 125.52C350.715 127.824 349.595 131.024 349.595 135.12C349.595 139.216 350.715 142.48 352.955 144.912C355.259 147.28 358.043 148.464 361.307 148.464C364.571 148.464 367.323 147.28 369.563 144.912C371.867 142.544 373.019 139.312 373.019 135.216ZM477.631 94.608V162H461.215V121.584L446.143 162H432.895L417.727 121.488V162H401.311V94.608H420.703L439.615 141.264L458.335 94.608H477.631ZM486.172 135.12C486.172 129.616 487.196 124.784 489.244 120.624C491.356 116.464 494.204 113.264 497.788 111.024C501.372 108.784 505.372 107.664 509.788 107.664C513.564 107.664 516.86 108.432 519.676 109.968C522.556 111.504 524.764 113.52 526.3 116.016V108.432H542.716V162H526.3V154.416C524.7 156.912 522.46 158.928 519.58 160.464C516.764 162 513.468 162.768 509.692 162.768C505.34 162.768 501.372 161.648 497.788 159.408C494.204 157.104 491.356 153.872 489.244 149.712C487.196 145.488 486.172 140.624 486.172 135.12ZM526.3 135.216C526.3 131.12 525.148 127.888 522.844 125.52C520.604 123.152 517.852 121.968 514.588 121.968C511.324 121.968 508.54 123.152 506.236 125.52C503.996 127.824 502.876 131.024 502.876 135.12C502.876 139.216 503.996 142.48 506.236 144.912C508.54 147.28 511.324 148.464 514.588 148.464C517.852 148.464 520.604 147.28 522.844 144.912C525.148 142.544 526.3 139.312 526.3 135.216ZM609.313 108.432L575.713 187.44H558.049L570.337 160.176L548.545 108.432H566.881L579.265 141.936L591.553 108.432H609.313ZM665.745 134.352C665.745 135.888 665.649 137.488 665.457 139.152H628.305C628.561 142.48 629.617 145.04 631.473 146.832C633.393 148.56 635.729 149.424 638.481 149.424C642.577 149.424 645.425 147.696 647.025 144.24H664.497C663.601 147.76 661.969 150.928 659.601 153.744C657.297 156.56 654.385 158.768 650.865 160.368C647.345 161.968 643.409 162.768 639.057 162.768C633.809 162.768 629.137 161.648 625.041 159.408C620.945 157.168 617.745 153.968 615.441 149.808C613.137 145.648 611.985 140.784 611.985 135.216C611.985 129.648 613.105 124.784 615.345 120.624C617.649 116.464 620.849 113.264 624.945 111.024C629.041 108.784 633.745 107.664 639.057 107.664C644.241 107.664 648.849 108.752 652.881 110.928C656.913 113.104 660.049 116.208 662.289 120.24C664.593 124.272 665.745 128.976 665.745 134.352ZM648.945 130.032C648.945 127.216 647.985 124.976 646.065 123.312C644.145 121.648 641.745 120.816 638.865 120.816C636.113 120.816 633.777 121.616 631.857 123.216C630.001 124.816 628.849 127.088 628.401 130.032H648.945ZM690.821 117.36C692.741 114.416 695.141 112.112 698.021 110.448C700.901 108.72 704.101 107.856 707.621 107.856V125.232H703.109C699.013 125.232 695.941 126.128 693.893 127.92C691.845 129.648 690.821 132.72 690.821 137.136V162H674.405V108.432H690.821V117.36Z" fill="#7D9AFF"/>
</svg>
